<svg width="25" height="24" viewBox="0 0 25 24" fill="none" xmlns="http://www.w3.org/2000/svg">
<g id="upload-cloud" clip-path="url(#clip0_45_427)">
<path id="Icon" d="M16.5 16L12.5 12M12.5 12L8.49999 16M12.5 12V21M20.89 18.39C21.8653 17.8583 22.6358 17.0169 23.0799 15.9986C23.5239 14.9804 23.6162 13.8432 23.3422 12.7667C23.0682 11.6901 22.4435 10.7355 21.5667 10.0534C20.6898 9.37137 19.6109 9.00072 18.5 8.99998H17.24C16.9373 7.82923 16.3732 6.74232 15.5899 5.82098C14.8067 4.89964 13.8248 4.16783 12.7181 3.68059C11.6113 3.19335 10.4085 2.96334 9.20011 3.00787C7.99167 3.05239 6.80906 3.37028 5.74117 3.93765C4.67328 4.50501 3.7479 5.30709 3.03461 6.28357C2.32132 7.26004 1.83868 8.38552 1.62297 9.57538C1.40726 10.7652 1.4641 11.9885 1.7892 13.1532C2.11431 14.318 2.69923 15.3938 3.49999 16.3" stroke="#E3EDFD" stroke-width="2" stroke-linecap="round" stroke-linejoin="round"/>
</g>
<defs>
<clipPath id="clip0_45_427">
<rect width="24" height="24" fill="white" transform="translate(0.5)"/>
</clipPath>
</defs>
</svg>
